<?xml version="1.0" encoding="UTF-8" standalone="no"?>
<!DOCTYPE svg PUBLIC "-//W3C//DTD SVG 1.1//EN" "http://www.w3.org/Graphics/SVG/1.1/DTD/svg11.dtd">
<svg version="1.1" xmlns="http://www.w3.org/2000/svg" xmlns:xlink="http://www.w3.org/1999/xlink" preserveAspectRatio="xMidYMid meet" viewBox="95.00000000000009 95 210.00000000000003 210" width="200" height="200"><defs><path d="M300 200C300 255.19 255.19 300 200 300C144.81 300 100 255.19 100 200C100 144.81 144.81 100 200 100C255.19 100 300 144.81 300 200Z" id="d2JSBFCiS"></path><path d="M180 170C180 181.04 171.04 190 160 190C148.96 190 140 181.04 140 170C140 158.96 148.96 150 160 150C171.04 150 180 158.96 180 170Z" id="b3rG4qSaQ3"></path><path d="M260 170C260 181.04 251.04 190 240 190C228.96 190 220 181.04 220 170C220 158.96 228.96 150 240 150C251.04 150 260 158.96 260 170Z" id="aEik1GYNg"></path><path d="" id="b1RqSgafwa"></path><path d="" id="a2E7qJ1AtP"></path><path d="M145.77 217.18L153.97 229.08L159.65 237.4L165.32 244.54L171.63 251.67L179.19 256.43L188.02 258.81L198.11 260L207.57 260L217.02 259.41L227.11 255.24L234.05 249.89L240.98 240.97L246.03 233.83L251.07 226.1L254.23 217.78" id="c5TZFRUBMJ"></path></defs><g><g><g><use xlink:href="#d2JSBFCiS" opacity="1" fill-opacity="0" stroke="#0f7f31" stroke-width="10" stroke-opacity="1"></use></g></g><g><use xlink:href="#b3rG4qSaQ3" opacity="1" fill="#0f7f31" fill-opacity="1"></use><g><use xlink:href="#b3rG4qSaQ3" opacity="1" fill-opacity="0" stroke="#0f7f31" stroke-width="2" stroke-opacity="1"></use></g></g><g><use xlink:href="#aEik1GYNg" opacity="1" fill="#0f7f31" fill-opacity="1"></use><g><use xlink:href="#aEik1GYNg" opacity="1" fill-opacity="0" stroke="#0f7f31" stroke-width="2" stroke-opacity="1"></use></g></g><g><g><use xlink:href="#b1RqSgafwa" opacity="1" fill-opacity="0" stroke="#93e7a4" stroke-width="2" stroke-opacity="1"></use></g></g><g><g><use xlink:href="#a2E7qJ1AtP" opacity="1" fill-opacity="0" stroke="#93e7a4" stroke-width="2" stroke-opacity="1"></use></g></g><g><g><use xlink:href="#c5TZFRUBMJ" opacity="1" fill-opacity="0" stroke="#0f7f31" stroke-width="9" stroke-opacity="1"></use></g></g></g></svg>