<?xml version="1.0" encoding="UTF-8" standalone="no"?>
<!DOCTYPE svg PUBLIC "-//W3C//DTD SVG 1.1//EN" "http://www.w3.org/Graphics/SVG/1.1/DTD/svg11.dtd">
<svg version="1.1" xmlns="http://www.w3.org/2000/svg" xmlns:xlink="http://www.w3.org/1999/xlink" preserveAspectRatio="xMidYMid meet" viewBox="95 95 210 210" width="200" height="200"><defs><path d="M300 200C300 255.19 255.19 300 200 300C144.81 300 100 255.19 100 200C100 144.81 144.81 100 200 100C255.19 100 300 144.81 300 200Z" id="a3YJe9KnR9"></path><path d="M180 170C180 181.04 171.04 190 160 190C148.96 190 140 181.04 140 170C140 158.96 148.96 150 160 150C171.04 150 180 158.96 180 170Z" id="a1gNzf4a0u"></path><path d="M260 170C260 181.04 251.04 190 240 190C228.96 190 220 181.04 220 170C220 158.96 228.96 150 240 150C251.04 150 260 158.96 260 170Z" id="b1ICC5IsVn"></path><path d="" id="b1RqSgafwa"></path><path d="" id="a2E7qJ1AtP"></path><path d="M270 230L130 230" id="b1efVtsFvM"></path></defs><g><g><g><use xlink:href="#a3YJe9KnR9" opacity="1" fill-opacity="0" stroke="#d49a16" stroke-width="10" stroke-opacity="1"></use></g></g><g><use xlink:href="#a1gNzf4a0u" opacity="1" fill="#d49a16" fill-opacity="1"></use><g><use xlink:href="#a1gNzf4a0u" opacity="1" fill-opacity="0" stroke="#d49a16" stroke-width="2" stroke-opacity="1"></use></g></g><g><use xlink:href="#b1ICC5IsVn" opacity="1" fill="#d49a16" fill-opacity="1"></use><g><use xlink:href="#b1ICC5IsVn" opacity="1" fill-opacity="0" stroke="#d49a16" stroke-width="2" stroke-opacity="1"></use></g></g><g><g><use xlink:href="#b1RqSgafwa" opacity="1" fill-opacity="0" stroke="#93e7a4" stroke-width="2" stroke-opacity="1"></use></g></g><g><g><use xlink:href="#a2E7qJ1AtP" opacity="1" fill-opacity="0" stroke="#93e7a4" stroke-width="2" stroke-opacity="1"></use></g></g><g><g><use xlink:href="#b1efVtsFvM" opacity="1" fill-opacity="0" stroke="#d49a16" stroke-width="9" stroke-opacity="1"></use></g></g></g></svg>