<?xml version="1.0" encoding="UTF-8" standalone="no"?>
<!DOCTYPE svg PUBLIC "-//W3C//DTD SVG 1.1//EN" "http://www.w3.org/Graphics/SVG/1.1/DTD/svg11.dtd">
<svg version="1.1" xmlns="http://www.w3.org/2000/svg" xmlns:xlink="http://www.w3.org/1999/xlink" preserveAspectRatio="xMidYMid meet" viewBox="95 95 210 210" width="200" height="200"><defs><path d="M300 200C300 255.19 255.19 300 200 300C144.81 300 100 255.19 100 200C100 144.81 144.81 100 200 100C255.19 100 300 144.81 300 200Z" id="ch9kxbTBl"></path><path d="M180 170C180 181.04 171.04 190 160 190C148.96 190 140 181.04 140 170C140 158.96 148.96 150 160 150C171.04 150 180 158.96 180 170Z" id="a2WLxhPyEu"></path><path d="M260 170C260 181.04 251.04 190 240 190C228.96 190 220 181.04 220 170C220 158.96 228.96 150 240 150C251.04 150 260 158.96 260 170Z" id="b5jU0W8Tac"></path><path d="" id="b1RqSgafwa"></path><path d="" id="a2E7qJ1AtP"></path><path d="M145.77 220L153.97 227.39L159.65 232.57L165.32 237.01L171.63 241.44L179.19 244.4L188.02 245.88L198.11 246.62L207.57 246.62L217.02 246.25L227.11 243.66L234.05 240.33L240.98 234.79L246.03 230.35L251.07 225.55L254.23 220.37" id="cblSSZnmR"></path></defs><g><g><g><use xlink:href="#ch9kxbTBl" opacity="1" fill-opacity="0" stroke="#77c222" stroke-width="10" stroke-opacity="1"></use></g></g><g><use xlink:href="#a2WLxhPyEu" opacity="1" fill="#77c222" fill-opacity="1"></use><g><use xlink:href="#a2WLxhPyEu" opacity="1" fill-opacity="0" stroke="#77c222" stroke-width="2" stroke-opacity="1"></use></g></g><g><use xlink:href="#b5jU0W8Tac" opacity="1" fill="#77c222" fill-opacity="1"></use><g><use xlink:href="#b5jU0W8Tac" opacity="1" fill-opacity="0" stroke="#77c222" stroke-width="2" stroke-opacity="1"></use></g></g><g><g><use xlink:href="#b1RqSgafwa" opacity="1" fill-opacity="0" stroke="#93e7a4" stroke-width="2" stroke-opacity="1"></use></g></g><g><g><use xlink:href="#a2E7qJ1AtP" opacity="1" fill-opacity="0" stroke="#93e7a4" stroke-width="2" stroke-opacity="1"></use></g></g><g><g><use xlink:href="#cblSSZnmR" opacity="1" fill-opacity="0" stroke="#77c222" stroke-width="9" stroke-opacity="1"></use></g></g></g></svg>