<?xml version="1.0" encoding="UTF-8" standalone="no"?>
<!DOCTYPE svg PUBLIC "-//W3C//DTD SVG 1.1//EN"
 "http://www.w3.org/Graphics/SVG/1.1/DTD/svg11.dtd">
<!-- Generated by graphviz version 2.47.0 (20210316.0004)
 -->
<!-- Title: dependencies Pages: 1 -->
<svg width="787pt" height="355pt"
 viewBox="0.00 0.00 787.00 355.00" xmlns="http://www.w3.org/2000/svg" xmlns:xlink="http://www.w3.org/1999/xlink">
<g id="graph0" class="graph" transform="scale(1 1) rotate(0) translate(4 351)">
<title>dependencies</title>
<polygon fill="white" stroke="transparent" points="-4,4 -4,-351 783,-351 783,4 -4,4"/>
<text text-anchor="start" x="368.51" y="-42.4" font-family="sans-serif" font-weight="bold" font-size="14.00">Legend</text>
<polygon fill="#ffffb3" stroke="transparent" points="155.5,-10 155.5,-30 175.5,-30 175.5,-10 155.5,-10"/>
<text text-anchor="start" x="179.13" y="-15.4" font-family="sans-serif" font-size="14.00"> &#160;Declarations</text>
<polygon fill="#8dd3c7" stroke="transparent" points="268.5,-10 268.5,-30 288.5,-30 288.5,-10 268.5,-10"/>
<text text-anchor="start" x="292.23" y="-15.4" font-family="sans-serif" font-size="14.00"> &#160;Module</text>
<polygon fill="#80b1d3" stroke="transparent" points="354.5,-10 354.5,-30 374.5,-30 374.5,-10 354.5,-10"/>
<text text-anchor="start" x="378.28" y="-15.4" font-family="sans-serif" font-size="14.00"> &#160;Bootstrap</text>
<polygon fill="#fdb462" stroke="transparent" points="451.5,-10 451.5,-30 471.5,-30 471.5,-10 451.5,-10"/>
<text text-anchor="start" x="475.17" y="-15.4" font-family="sans-serif" font-size="14.00"> &#160;Providers</text>
<polygon fill="#fb8072" stroke="transparent" points="547.5,-10 547.5,-30 567.5,-30 567.5,-10 547.5,-10"/>
<text text-anchor="start" x="571.23" y="-15.4" font-family="sans-serif" font-size="14.00"> &#160;Exports</text>
<g id="clust1" class="cluster">
<title>cluster_AppModule</title>
<polygon fill="none" stroke="black" stroke-dasharray="1,5" points="8,-70 8,-339 441,-339 441,-70 8,-70"/>
</g>
<g id="clust2" class="cluster">
<title>cluster_AppModule_declarations</title>
<polygon fill="none" stroke="black" points="48,-143 48,-195 170,-195 170,-143 48,-143"/>
</g>
<g id="clust4" class="cluster">
<title>cluster_AppModule_imports</title>
<polygon fill="none" stroke="black" points="178,-78 178,-195 433,-195 433,-78 178,-78"/>
</g>
<g id="clust6" class="cluster">
<title>cluster_AppModule_bootstrap</title>
<polygon fill="none" stroke="black" points="31,-279 31,-331 155,-331 155,-279 31,-279"/>
</g>
<g id="clust14" class="cluster">
<title>cluster_LocationModule</title>
<polygon fill="none" stroke="black" stroke-dasharray="1,5" points="449,-203 449,-271 771,-271 771,-203 449,-203"/>
</g>
<g id="clust15" class="cluster">
<title>cluster_LocationModule_declarations</title>
<polygon fill="none" stroke="black" points="615,-211 615,-263 763,-263 763,-211 615,-211"/>
</g>
<g id="clust18" class="cluster">
<title>cluster_LocationModule_exports</title>
<polygon fill="none" stroke="black" points="457,-211 457,-263 607,-263 607,-211 457,-211"/>
</g>
<!-- AppComponent -->
<g id="node1" class="node">
<title>AppComponent</title>
<polygon fill="#ffffb3" stroke="black" points="161.94,-187 56.06,-187 56.06,-151 161.94,-151 161.94,-187"/>
<text text-anchor="middle" x="109" y="-164.8" font-family="Times,serif" font-size="14.00">AppComponent</text>
</g>
<!-- AppModule -->
<g id="node2" class="node">
<title>AppModule</title>
<polygon fill="#8dd3c7" stroke="black" points="134.66,-255 131.66,-259 110.66,-259 107.66,-255 51.34,-255 51.34,-219 134.66,-219 134.66,-255"/>
<text text-anchor="middle" x="93" y="-232.8" font-family="Times,serif" font-size="14.00">AppModule</text>
</g>
<!-- AppComponent&#45;&gt;AppModule -->
<g id="edge1" class="edge">
<title>AppComponent&#45;&gt;AppModule</title>
<path fill="none" stroke="black" d="M95.55,-187.22C95.55,-187.22 95.55,-208.73 95.55,-208.73"/>
<polygon fill="black" stroke="black" points="92.05,-208.73 95.55,-218.73 99.05,-208.73 92.05,-208.73"/>
</g>
<!-- AppComponent  -->
<g id="node6" class="node">
<title>AppComponent </title>
<polygon fill="#80b1d3" stroke="black" points="147.44,-323 38.56,-323 38.56,-287 147.44,-287 147.44,-323"/>
<text text-anchor="middle" x="93" y="-300.8" font-family="Times,serif" font-size="14.00">AppComponent </text>
</g>
<!-- AppModule&#45;&gt;AppComponent  -->
<g id="edge5" class="edge">
<title>AppModule&#45;&gt;AppComponent </title>
<path fill="none" stroke="black" stroke-dasharray="1,5" d="M93,-255.22C93,-255.22 93,-276.73 93,-276.73"/>
<polygon fill="black" stroke="black" points="89.5,-276.73 93,-286.73 96.5,-276.73 89.5,-276.73"/>
</g>
<!-- AppRoutingModule -->
<g id="node3" class="node">
<title>AppRoutingModule</title>
<polygon fill="#8dd3c7" stroke="black" points="314.27,-122 311.27,-126 290.27,-126 287.27,-122 185.73,-122 185.73,-86 314.27,-86 314.27,-122"/>
<text text-anchor="middle" x="250" y="-99.8" font-family="Times,serif" font-size="14.00">AppRoutingModule</text>
</g>
<!-- AppRoutingModule&#45;&gt;AppModule -->
<g id="edge2" class="edge">
<title>AppRoutingModule&#45;&gt;AppModule</title>
<path fill="none" stroke="black" d="M250,-122.15C250,-156.36 250,-227 250,-227 250,-227 144.66,-227 144.66,-227"/>
<polygon fill="black" stroke="black" points="144.66,-223.5 134.66,-227 144.66,-230.5 144.66,-223.5"/>
</g>
<!-- LocationModule -->
<g id="node4" class="node">
<title>LocationModule</title>
<polygon fill="#8dd3c7" stroke="black" points="424.81,-187 421.81,-191 400.81,-191 397.81,-187 315.19,-187 315.19,-151 424.81,-151 424.81,-187"/>
<text text-anchor="middle" x="370" y="-164.8" font-family="Times,serif" font-size="14.00">LocationModule</text>
</g>
<!-- LocationModule&#45;&gt;AppModule -->
<g id="edge3" class="edge">
<title>LocationModule&#45;&gt;AppModule</title>
<path fill="none" stroke="black" d="M351.78,-187.11C351.78,-206.34 351.78,-234 351.78,-234 351.78,-234 144.87,-234 144.87,-234"/>
<polygon fill="black" stroke="black" points="144.87,-230.5 134.87,-234 144.87,-237.5 144.87,-230.5"/>
</g>
<!-- LocationComponent  -->
<g id="node8" class="node">
<title>LocationComponent </title>
<polygon fill="#fb8072" stroke="black" points="599.1,-255 464.9,-255 464.9,-219 599.1,-219 599.1,-255"/>
<text text-anchor="middle" x="532" y="-232.8" font-family="Times,serif" font-size="14.00">LocationComponent </text>
</g>
<!-- LocationModule&#45;&gt;LocationComponent  -->
<g id="edge8" class="edge">
<title>LocationModule&#45;&gt;LocationComponent </title>
<path fill="none" stroke="black" stroke-dasharray="5,2" d="M388.22,-187.17C388.22,-208.5 388.22,-241 388.22,-241 388.22,-241 454.74,-241 454.74,-241"/>
<polygon fill="black" stroke="black" points="454.74,-244.5 464.74,-241 454.74,-237.5 454.74,-244.5"/>
</g>
<!-- PrimeModule -->
<g id="node5" class="node">
<title>PrimeModule</title>
<polygon fill="#8dd3c7" stroke="black" points="425.49,-122 422.49,-126 401.49,-126 398.49,-122 332.51,-122 332.51,-86 425.49,-86 425.49,-122"/>
<text text-anchor="middle" x="379" y="-99.8" font-family="Times,serif" font-size="14.00">PrimeModule</text>
</g>
<!-- PrimeModule&#45;&gt;AppModule -->
<g id="edge4" class="edge">
<title>PrimeModule&#45;&gt;AppModule</title>
<path fill="none" stroke="black" d="M425.62,-104C436.56,-104 445.1,-104 445.1,-104 445.1,-104 445.1,-248 445.1,-248 445.1,-248 144.77,-248 144.77,-248"/>
<polygon fill="black" stroke="black" points="144.77,-244.5 134.77,-248 144.77,-251.5 144.77,-244.5"/>
</g>
<!-- PrimeModule&#45;&gt;LocationModule -->
<g id="edge7" class="edge">
<title>PrimeModule&#45;&gt;LocationModule</title>
<path fill="none" stroke="black" d="M378.58,-122.11C378.58,-122.11 378.58,-140.99 378.58,-140.99"/>
<polygon fill="black" stroke="black" points="375.08,-140.99 378.58,-150.99 382.08,-140.99 375.08,-140.99"/>
</g>
<!-- LocationComponent -->
<g id="node7" class="node">
<title>LocationComponent</title>
<polygon fill="#ffffb3" stroke="black" points="754.6,-255 623.4,-255 623.4,-219 754.6,-219 754.6,-255"/>
<text text-anchor="middle" x="689" y="-232.8" font-family="Times,serif" font-size="14.00">LocationComponent</text>
</g>
<!-- LocationComponent&#45;&gt;LocationModule -->
<g id="edge6" class="edge">
<title>LocationComponent&#45;&gt;LocationModule</title>
<path fill="none" stroke="black" d="M689,-218.78C689,-198.63 689,-169 689,-169 689,-169 434.84,-169 434.84,-169"/>
<polygon fill="black" stroke="black" points="434.84,-165.5 424.84,-169 434.84,-172.5 434.84,-165.5"/>
</g>
</g>
</svg>
